<svg xmlns="http://www.w3.org/2000/svg" width="28" height="28" viewBox="0 0 28 28" fill="none">
  <circle cx="14" cy="14" r="13" stroke="#111111" stroke-width="2.5" fill="white"/>
  <path fill="#111111" d="M14 6C9.03 6 5 10.03 5 15c0 3.98 2.58 7.35 6.16 8.54.45.08.62-.2.62-.45 0-.22-.01-.8-.01-1.56-2.51.55-3.04-1.06-3.04-1.06-.41-1.04-1-1.32-1-1.32-.82-.56.06-.55.06-.55.91.07 1.39.94 1.39.94.81 1.39 2.12.99 2.64.76.08-.58.32-.99.58-1.22-2.01-.23-4.13-1-4.13-4.42 0-.98.35-1.78.93-2.41-.09-.23-.4-1.16.09-2.42 0 0 .76-.24 2.48.93.72-.2 1.49-.3 2.26-.3.77 0 1.54.1 2.26.3 1.72-1.17 2.48-.93 2.48-.93.49 1.26.18 2.19.09 2.42.58.63.93 1.43.93 2.41 0 3.43-2.12 4.18-4.14 4.41.33.28.63.83.63 1.68 0 1.21-.01 2.18-.01 2.48 0 .25.17.54.63.45C20.42 22.35 23 18.98 23 15c0-4.97-4.03-9-9-9Z"/>
</svg>

